<svg width="296" height="75" viewBox="0 0 296 75" fill="none" xmlns="http://www.w3.org/2000/svg">
<path d="M295.978 15.5341V56.9051H286.033L271.4 31.1618V56.9051H261.427V15.5341H271.4L286.033 41.2773V15.5341H295.978Z" fill="#0179D7"/>
<path d="M254.618 15.5341V56.9051H244.673V15.5341H254.618Z" fill="#0179D7"/>
<path d="M203.201 53.1544L211.441 15.5341H216.357L219.028 18.7449L210.248 56.9051H204.821L203.201 53.1544ZM201.013 15.5341L207.975 53.4385L206.185 56.9051H199.905L191.125 15.5341H201.013ZM223.546 53.2396L230.45 15.5341H240.31L231.53 56.9051H225.279L223.546 53.2396ZM219.909 15.5341L228.348 53.3817L226.643 56.9051H221.216L212.237 18.688L215.021 15.5341H219.909Z" fill="#0179D7"/>
<path d="M155.902 15.5341H172.184C175.366 15.5341 178.132 16.0076 180.481 16.9548C182.829 17.9019 184.639 19.3037 185.908 21.1601C187.196 23.0165 187.84 25.3085 187.84 28.0363C187.84 30.4041 187.47 32.3837 186.732 33.9748C185.993 35.566 184.961 36.8826 183.635 37.9244C182.328 38.9473 180.803 39.7903 179.06 40.4533L175.792 42.3002H162.125L162.068 34.6H172.184C173.453 34.6 174.504 34.3726 175.338 33.918C176.171 33.4634 176.796 32.8193 177.213 31.9859C177.649 31.1334 177.866 30.12 177.866 28.9455C177.866 27.7521 177.649 26.7292 177.213 25.8768C176.777 25.0244 176.133 24.3709 175.281 23.9162C174.447 23.4616 173.415 23.2343 172.184 23.2343H165.876V56.9051H155.902V15.5341ZM178.548 56.9051L169.399 38.6064L179.969 38.5495L189.232 56.4789V56.9051H178.548Z" fill="white"/>
<path d="M139.86 15.5341H149.833V42.5559C149.833 45.7762 149.161 48.504 147.816 50.7392C146.471 52.9555 144.586 54.6319 142.161 55.7685C139.737 56.9051 136.886 57.4734 133.609 57.4734C130.369 57.4734 127.519 56.9051 125.056 55.7685C122.612 54.6319 120.699 52.9555 119.316 50.7392C117.952 48.504 117.271 45.7762 117.271 42.5559V15.5341H127.272V42.5559C127.272 44.2608 127.519 45.6531 128.011 46.7328C128.504 47.7936 129.223 48.5703 130.171 49.0628C131.118 49.5553 132.264 49.8015 133.609 49.8015C134.973 49.8015 136.119 49.5553 137.047 49.0628C137.975 48.5703 138.676 47.7936 139.149 46.7328C139.623 45.6531 139.86 44.2608 139.86 42.5559V15.5341Z" fill="white"/>
<path d="M111.314 15.5341V56.9051H101.369L86.7361 31.1618V56.9051H76.7627V15.5341H86.7361L101.369 41.2773V15.5341H111.314Z" fill="white"/>
<path d="M44.3948 42.2125C48.1189 52.6631 45.2162 60.1101 43.2993 62.5273C43.4626 54.1155 37.6845 50.7309 34.7751 50.0901C34.2307 49.2381 33.6726 46.6794 33.4616 45.5065C32.6131 41.0489 32.6971 30.6955 39.8211 24.9433C44.942 20.8085 51.1855 21.2054 55.4915 22.5601C56.7637 22.888 58.0785 23.4556 59.4047 24.3309C59.4275 24.3459 59.45 24.3608 59.4723 24.3757C59.4497 24.3607 59.4272 24.3457 59.4047 24.3309C58.4958 23.7335 57.1347 23.0771 55.4915 22.5601C50.1465 21.1826 45.5517 24.0362 44.0066 26.0764C42.5842 27.1006 40.6706 31.7618 44.3948 42.2125Z" fill="url(#paint0_linear_32_679)"/>
<g filter="url(#filter0_d_32_679)">
<path d="M39.5596 25.4077C47.412 18.9575 56.5506 22.3883 59.8224 24.7253C58.1397 19.1165 50.3679 17.6955 45.8696 18.3966C44.8179 18.5134 41.0917 18.4728 35.2941 21.201C29.3347 24.0055 23.3753 31.0166 20.9801 35.5738C17.7664 40.8322 16.3641 48.5444 16.7735 52.751C17.1144 56.2545 17.124 58.0795 24.1351 62.5666C31.1462 67.0537 33.6001 71.2136 33.9507 72.7327C40.4009 67.6847 37.748 57.3083 34.6518 49.596C33.0159 44.2208 31.7071 31.8579 39.5596 25.4077Z" fill="url(#paint1_linear_32_679)"/>
</g>
<g filter="url(#filter1_d_32_679)">
<path d="M21.0285 35.7323C16.8219 42.4629 16.2376 51.8578 16.4713 55.7139C10.3015 48.9832 10.8624 40.5232 11.9142 37.1345C8.26846 41.6216 5.72102 50.2219 4.90301 53.9611C1.25723 50.5958 1.0469 41.5748 1.39746 37.485C1.63116 35.3817 1.97845 30.3341 4.55246 24.1639C6.84037 18.6795 12.1478 12.4787 14.7186 10.1417C11.3532 9.5808 6.30523 5.46763 4.2019 3.48115L9.69067 2.99081C15.0659 2.64025 27.3386 2.28926 32.9474 1.72837C38.5563 1.16748 40.1583 0.632723 43.4641 3.13059C44.7794 4.1244 44.8663 4.32248 46.2686 6.28559C47.2996 7.72911 46.6191 9.67429 45.918 10.1417C45.0968 10.703 44.0951 10.7026 42.4124 10.1417C40.7298 9.58081 37.7384 9.20688 36.453 9.09003C31.405 8.80958 28.7408 9.67429 28.0397 10.1417C28.7408 10.2585 30.9843 10.983 34.3497 12.9461C37.715 14.9092 39.1373 15.2603 39.9585 15.0495L44.1652 11.5439C44.1652 11.5439 45.0474 11.4128 45.5674 11.1934C46.5526 10.7777 47.6708 9.4406 47.6708 9.4406C50.5921 8.50578 57.276 7.96826 60.6413 13.2967C64.0066 18.6251 61.5761 24.3976 59.9402 26.6178C60.0571 24.6313 58.6782 20.3078 52.228 18.9056C45.7778 17.5034 38.3226 20.4247 35.4013 22.0606C32.3632 23.8134 25.2352 29.0016 21.0285 35.7323Z" fill="white"/>
</g>
<defs>
<filter id="filter0_d_32_679" x="16.0204" y="17.7754" width="45.3971" height="56.7804" filterUnits="userSpaceOnUse" color-interpolation-filters="sRGB">
<feFlood flood-opacity="0" result="BackgroundImageFix"/>
<feColorMatrix in="SourceAlpha" type="matrix" values="0 0 0 0 0 0 0 0 0 0 0 0 0 0 0 0 0 0 127 0" result="hardAlpha"/>
<feOffset dx="0.455794" dy="0.683691"/>
<feGaussianBlur stdDeviation="0.569743"/>
<feComposite in2="hardAlpha" operator="out"/>
<feColorMatrix type="matrix" values="0 0 0 0 0 0 0 0 0 0 0 0 0 0 0 0 0 0 0.25 0"/>
<feBlend mode="normal" in2="BackgroundImageFix" result="effect1_dropShadow_32_679"/>
<feBlend mode="normal" in="SourceGraphic" in2="effect1_dropShadow_32_679" result="shape"/>
</filter>
<filter id="filter1_d_32_679" x="0.593652" y="0.118693" width="64.2433" height="57.6462" filterUnits="userSpaceOnUse" color-interpolation-filters="sRGB">
<feFlood flood-opacity="0" result="BackgroundImageFix"/>
<feColorMatrix in="SourceAlpha" type="matrix" values="0 0 0 0 0 0 0 0 0 0 0 0 0 0 0 0 0 0 127 0" result="hardAlpha"/>
<feOffset dx="0.911588" dy="0.455794"/>
<feGaussianBlur stdDeviation="0.79764"/>
<feComposite in2="hardAlpha" operator="out"/>
<feColorMatrix type="matrix" values="0 0 0 0 0 0 0 0 0 0 0 0 0 0 0 0 0 0 0.25 0"/>
<feBlend mode="normal" in2="BackgroundImageFix" result="effect1_dropShadow_32_679"/>
<feBlend mode="normal" in="SourceGraphic" in2="effect1_dropShadow_32_679" result="shape"/>
</filter>
<linearGradient id="paint0_linear_32_679" x1="45.9717" y1="21.5069" x2="45.1751" y2="62.5636" gradientUnits="userSpaceOnUse">
<stop stop-color="#0279D8"/>
<stop offset="1" stop-color="#0179D7"/>
</linearGradient>
<linearGradient id="paint1_linear_32_679" x1="54.5641" y1="18.4153" x2="8.64132" y2="58.7292" gradientUnits="userSpaceOnUse">
<stop stop-color="#0078D6"/>
<stop offset="1" stop-color="#0179D7"/>
</linearGradient>
</defs>
</svg>
