<svg width="111" height="51" viewBox="0 0 111 51" fill="none" xmlns="http://www.w3.org/2000/svg">
<path d="M60.257 13.642L52.5577 34.371H47.4051L43.3777 23.7103L43.052 22.6739L42.7558 23.6807L38.7581 34.371H33.6055L25.8765 13.642H32.5098L36.0633 24.9541L36.3299 26.0794L36.626 24.9541L40.831 13.642H45.3322L49.478 24.9541L49.8037 26.0794L50.0702 24.9541L53.6534 13.642H60.257ZM67.7634 13.642V34.371H61.4855V13.642H67.7634ZM76.9321 19.6534C76.9321 22.2297 88.2146 19.9199 88.2146 27.8265C88.2146 32.4461 84.2465 34.7856 78.9754 34.7856C75.1849 34.7856 72.0756 33.5714 69.8842 32.2685L71.8091 27.4712C73.9412 28.6557 76.5767 29.4849 79.005 29.4849C80.2783 29.4849 81.7886 29.2183 81.7886 28.3003C81.7886 25.7832 70.8022 27.7377 70.7134 20.1568C70.6838 15.7149 74.3558 13.2866 79.7453 13.2866C82.5881 13.2866 85.046 13.9677 87.2966 15.0338L85.431 19.9199C83.0619 18.8834 80.9298 18.4689 79.3307 18.4689C77.6724 18.4689 76.9321 18.9723 76.9321 19.6534ZM104.271 13.642H110.549V34.371H104.271V26.642H96.3049V34.371H90.027V13.642H96.3049V21.3709H104.271V13.642Z" fill="white"/>
<path d="M37.8511 37.7946C40.3788 37.7946 41.5658 39.4843 41.5658 41.3556C41.5658 43.0314 40.3508 44.9446 37.7534 44.9446H35.8123V47.5699H32.8518V37.7946H37.8511ZM37.4043 42.5845C38.3259 42.5845 38.5773 41.9282 38.5773 41.3696C38.5773 40.5736 38.2003 40.2664 37.4601 40.2664H35.8123V42.5845H37.4043ZM48.9291 47.5699L48.4124 46.2712H44.1951L43.6784 47.5699H40.5782L44.9212 37.7946H47.6863L52.0293 47.5699H48.9291ZM45.1307 43.9251H47.4768L46.5412 41.593L46.3038 40.9367L46.0664 41.593L45.1307 43.9251ZM58.8301 47.5699L57.0565 44.9306H55.4366V47.5699H52.4761V37.7946H57.9084C60.436 37.7946 61.637 39.4843 61.637 41.2299C61.637 42.4588 61.0784 43.7296 59.8914 44.4139L62.1676 47.5699H58.8301ZM55.4366 40.2803V42.4868H57.252C58.3134 42.4868 58.6345 41.9561 58.6345 41.3137C58.6345 40.6015 58.2016 40.2803 57.3079 40.2803H55.4366ZM70.8093 37.7946V40.2803H68.0164V47.5699H65.0558V40.2803H62.2768V37.7946H70.8093ZM81.4617 37.7946V47.5699H79.1017L75.0658 42.5147L74.8564 42.1237V47.5699H71.8958V37.7946H74.4095L78.2917 42.6264L78.5012 43.0174V37.7946H81.4617ZM85.6699 40.2384V41.4673H90.4319V43.8134H85.6699V45.1121H90.8927V47.5699H82.7513V37.7946H90.8788V40.2384H85.6699ZM98.406 47.5699L96.6325 44.9306H95.0126V47.5699H92.052V37.7946H97.4843C100.012 37.7946 101.213 39.4843 101.213 41.2299C101.213 42.4588 100.654 43.7296 99.4673 44.4139L101.744 47.5699H98.406ZM95.0126 40.2803V42.4868H96.828C97.8893 42.4868 98.2105 41.9561 98.2105 41.3137C98.2105 40.6015 97.7776 40.2803 96.8838 40.2803H95.0126ZM105.187 40.6295C105.187 41.8444 110.508 40.7551 110.508 44.4837C110.508 46.6622 108.637 47.7655 106.151 47.7655C104.364 47.7655 102.897 47.1929 101.864 46.5784L102.772 44.3162C103.777 44.8747 105.02 45.2658 106.165 45.2658C106.765 45.2658 107.478 45.1401 107.478 44.7072C107.478 43.5202 102.297 44.4418 102.255 40.8669C102.241 38.7721 103.972 37.627 106.514 37.627C107.855 37.627 109.014 37.9482 110.075 38.4509L109.195 40.7551C108.078 40.2664 107.073 40.0709 106.319 40.0709C105.537 40.0709 105.187 40.3083 105.187 40.6295Z" fill="white"/>
<path d="M14.724 39.9561C14.6846 39.7318 14.6523 39.4918 14.6283 39.2377C14.4754 38.3229 14.0599 36.4769 12.8153 32.8947C11.0764 27.8901 3.22402 31.1748 -0.484795 33.4427L8.0547 27.0643C12.4995 23.5734 14.3837 16.6658 14.8772 12.7061C14.8726 21.6406 19.6644 20.8027 22.9231 19.4642L57.7708 4.91744L24.5447 23.5734C15.957 27.6389 14.2476 35.2051 14.6283 39.2377C14.6923 39.6206 14.7104 39.8404 14.724 39.9561Z" fill="#7773FF"/>
<path d="M61.2261 11.4066C61.2133 11.3336 61.2028 11.2555 61.195 11.1728C61.1452 10.875 61.0099 10.274 60.6048 9.10792C60.0387 7.47876 57.4825 8.54804 56.2752 9.28632L59.0551 7.20993C60.4463 6.56429 61.1154 3.82488 61.276 2.53588C61.2745 5.44437 62.8344 5.1716 63.8952 4.73586L75.2392 0.00042459L64.4231 6.07353C61.6275 7.397 61.071 9.86002 61.195 11.1728C61.2158 11.2974 61.2217 11.369 61.2261 11.4066Z" fill="#7773FF"/>
</svg>
